<svg xmlns="http://www.w3.org/2000/svg" width="74" height="74" viewBox="0 0 74 74"><defs><style>.a{fill:#fff;stroke:#304de5;stroke-width:3px;}.b{fill:#304de5;}.c{stroke:none;}.d{fill:none;}</style></defs><g class="a"><circle class="c" cx="37" cy="37" r="37"/><circle class="d" cx="37" cy="37" r="35.5"/></g><path class="b" d="M5.952,3.585l.694-.712a.734.734,0,0,1,1.059,0L13.78,9.1a.78.78,0,0,1,0,1.087L7.705,16.421a.734.734,0,0,1-1.059,0l-.694-.712a.784.784,0,0,1,.012-1.1L9.73,10.93H.75A.758.758,0,0,1,0,10.16V9.134a.758.758,0,0,1,.75-.769H9.73L5.965,4.685A.779.779,0,0,1,5.952,3.585Z" transform="translate(30 27.353)"/></svg>